<svg width="142" height="68" viewBox="0 0 142 68" fill="none" xmlns="http://www.w3.org/2000/svg">
<path d="M4.70459 9.72776L14.0007 7.48655L14.3811 9.06408L5.08492 11.3053L4.70459 9.72776ZM7.63346 4.93801L9.21098 4.55768L11.4522 13.8538L9.87467 14.2342L7.63346 4.93801Z" fill="black"/>
<path d="M8.45561 24.7816C8.01996 23.8872 7.79355 23.0197 7.77638 22.1793C7.76566 21.3412 7.94731 20.5946 8.32131 19.9397C8.69966 19.2827 9.25027 18.7809 9.97315 18.4342C10.5355 18.1549 11.1104 18.0118 11.698 18.005C12.2899 17.996 12.8417 18.1087 13.3533 18.343C13.8714 18.5795 14.2923 18.9197 14.616 19.3637L14.6942 19.3257C14.5483 18.607 14.6591 17.9246 15.0265 17.2782C15.3983 16.6298 15.9391 16.1354 16.649 15.795C17.3242 15.4608 18.0134 15.3373 18.7166 15.4245C19.4199 15.5118 20.0737 15.7842 20.678 16.242C21.2845 16.704 21.778 17.3258 22.1587 18.1074C22.5351 18.8802 22.7172 19.6457 22.705 20.4037C22.6928 21.1617 22.5043 21.8444 22.1394 22.4519C21.7766 23.0637 21.2577 23.5368 20.5824 23.871C19.8726 24.2114 19.1467 24.3259 18.4049 24.2145C17.6695 24.1053 17.067 23.7783 16.5975 23.2334L16.5193 23.2715C16.6672 23.7957 16.6725 24.3303 16.535 24.8754C16.4019 25.4183 16.1505 25.9222 15.7806 26.3871C15.4151 26.8498 14.9511 27.2208 14.3888 27.5001C13.6659 27.8468 12.9282 27.9644 12.1755 27.8529C11.4293 27.7436 10.7295 27.4264 10.0762 26.9012C9.42933 26.3782 8.88914 25.6717 8.45561 24.7816ZM9.88844 24.0837C10.1824 24.6872 10.5339 25.1607 10.9428 25.5041C11.3518 25.8474 11.7925 26.0518 12.2648 26.1172C12.7372 26.1826 13.2132 26.1012 13.6929 25.8729C14.1945 25.6232 14.5761 25.2762 14.8378 24.8318C15.0994 24.3874 15.2331 23.8899 15.2388 23.3391C15.2467 22.7927 15.1131 22.2373 14.8382 21.6729C14.5612 21.1041 14.203 20.65 13.7638 20.3106C13.3266 19.9756 12.8525 19.7741 12.3413 19.7062C11.8322 19.6426 11.3269 19.7356 10.8253 19.9852C10.3456 20.2135 9.9848 20.5316 9.74296 20.9395C9.50324 21.3517 9.39354 21.8268 9.41386 22.3649C9.43418 22.9029 9.59237 23.4758 9.88844 24.0837ZM16.219 21.0004C16.4516 21.478 16.7533 21.8548 17.1241 22.1308C17.497 22.4112 17.9068 22.5742 18.3534 22.6199C18.8001 22.6656 19.2545 22.5785 19.7169 22.3587C20.1664 22.1344 20.5075 21.8366 20.7403 21.4654C20.9775 21.092 21.0973 20.6764 21.0999 20.2185C21.1069 19.7585 20.9909 19.2832 20.7519 18.7926C20.5087 18.2932 20.2028 17.9023 19.8343 17.6199C19.47 17.3353 19.0689 17.1734 18.6308 17.1343C18.1971 17.0931 17.7555 17.1846 17.3061 17.4089C16.8437 17.6287 16.4918 17.9264 16.2503 18.3018C16.0109 18.6817 15.8866 19.1048 15.8774 19.5713C15.8683 20.0377 15.9821 20.5141 16.219 21.0004Z" fill="black"/>
<path d="M15.2462 31.0652L16.4109 30.1555L28.5543 28.9448L29.2142 29.7898L27.41 31.1988L26.9641 30.6278L17.7886 31.543L17.6972 31.6144L23.1014 38.5343L21.8453 39.5153L15.2462 31.0652ZM17.1465 38.4419L19.8985 36.2927L20.4409 35.8691L28.8396 29.3102L29.8919 30.6576L18.1988 39.7893L17.1465 38.4419Z" fill="black"/>
<path d="M32.3056 52.7785C31.507 52.2525 30.8854 51.6465 30.4409 50.9605C30.0004 50.2771 29.7573 49.5706 29.7117 48.8408C29.6728 48.1096 29.851 47.4088 30.2465 46.7381L31.7711 47.7423C31.5403 48.1628 31.4504 48.598 31.5011 49.0478C31.5545 49.4935 31.725 49.9239 32.0126 50.3389C32.3003 50.7538 32.6821 51.1181 33.158 51.4315C33.6904 51.7822 34.2234 52.0002 34.757 52.0856C35.2906 52.171 35.7833 52.1254 36.235 51.9488C36.6868 51.7721 37.0561 51.466 37.343 51.0304C37.6432 50.5746 37.7946 50.0989 37.7972 49.6033C37.8024 49.1036 37.6523 48.6115 37.3469 48.127C37.0414 47.6425 36.5741 47.193 35.9449 46.7786L34.9527 46.1251L35.8293 44.7941L36.8215 45.4476C37.3136 45.7717 37.8036 45.9672 38.2916 46.0341C38.7835 46.1037 39.2407 46.0462 39.6629 45.8617C40.0892 45.6798 40.4458 45.371 40.7327 44.9354C41.0089 44.516 41.1566 44.0899 41.1756 43.6571C41.1946 43.2243 41.0918 42.8097 40.8672 42.4131C40.6467 42.0192 40.3085 41.6721 39.8528 41.3719C39.4252 41.0904 38.9701 40.9034 38.4874 40.811C38.0113 40.7172 37.5574 40.7392 37.1255 40.8769C36.6962 41.0105 36.3361 41.2764 36.0449 41.6745L34.5929 40.7182C35.0448 40.0848 35.615 39.6449 36.3035 39.3986C36.9946 39.1483 37.7269 39.0812 38.5004 39.1975C39.278 39.3164 40.0237 39.6109 40.7377 40.0811C41.504 40.5858 42.0592 41.1741 42.4031 41.8459C42.7498 42.5137 42.9043 43.1967 42.8667 43.8948C42.8291 44.5929 42.6177 45.2343 42.2325 45.8192C41.7729 46.5169 41.1976 46.991 40.5065 47.2413C39.8194 47.4943 39.1008 47.5097 38.3508 47.2875L38.2871 47.3843C38.9845 48.0287 39.3764 48.7639 39.4627 49.5899C39.5517 50.4119 39.3372 51.2161 38.8192 52.0026C38.3756 52.6762 37.7936 53.1603 37.0733 53.455C36.3596 53.7483 35.5873 53.8411 34.7562 53.7332C33.9251 53.6253 33.1082 53.3071 32.3056 52.7785Z" fill="black"/>
<path d="M41.0969 54.5718L41.6321 53.1942L51.4452 45.9396L52.4446 46.3278L51.6156 48.4617L50.9403 48.1993L43.5258 53.6812L43.4838 53.7893L51.668 56.9688L51.0908 58.4544L41.0969 54.5718ZM46.5046 59.9368L47.7691 56.6821L48.0183 56.0406L51.8774 46.1075L53.471 46.7266L48.0983 60.556L46.5046 59.9368Z" fill="black"/>
<path d="M58.9701 63.5761C57.9875 63.4199 57.1471 63.1078 56.4489 62.6398C55.7561 62.1679 55.2488 61.5909 54.9269 60.9089C54.6057 60.2221 54.5104 59.4832 54.641 58.6922C54.7348 58.0714 54.9474 57.5183 55.2789 57.0331C55.611 56.5431 56.0198 56.1557 56.5052 55.871C56.9961 55.5823 57.5162 55.4327 58.0656 55.4222L58.0792 55.3363C57.4069 55.0436 56.9114 54.5614 56.5927 53.8897C56.2748 53.2133 56.18 52.4867 56.3084 51.71C56.4219 50.9651 56.7161 50.3297 57.1909 49.8037C57.6657 49.2777 58.2639 48.8984 58.9855 48.6659C59.7118 48.4342 60.5043 48.3865 61.3628 48.523C62.2118 48.658 62.9433 48.9478 63.5572 49.3926C64.1711 49.8374 64.6223 50.3835 64.9106 51.0308C65.2037 51.6789 65.2935 52.3753 65.18 53.1201C65.0516 53.8968 64.729 54.5571 64.2123 55.1009C63.701 55.6407 63.0876 55.9466 62.3719 56.0187L62.3583 56.1045C62.8726 56.2841 63.3135 56.5865 63.6812 57.0117C64.0495 57.4321 64.3181 57.9271 64.4867 58.4967C64.6561 59.0616 64.6939 59.6544 64.6001 60.2752C64.4695 61.0662 64.1426 61.738 63.6196 62.2906C63.102 62.8392 62.4408 63.2304 61.6359 63.4643C60.8365 63.6943 59.9479 63.7315 58.9701 63.5761ZM59.2203 62.0021C59.8833 62.1075 60.4727 62.0911 60.9885 61.9531C61.5044 61.815 61.9246 61.5713 62.2491 61.2219C62.5736 60.8724 62.7799 60.4358 62.8681 59.9119C62.9512 59.3578 62.8859 58.8462 62.6719 58.377C62.458 57.9077 62.1271 57.5128 61.6793 57.1922C61.2362 56.8724 60.7046 56.6632 60.0846 56.5647C59.4597 56.4653 58.8824 56.4983 58.3524 56.6634C57.8272 56.8294 57.3902 57.1022 57.0413 57.482C56.6972 57.8625 56.4836 58.3298 56.4004 58.8838C56.3122 59.4077 56.3658 59.8857 56.5612 60.3178C56.7614 60.7506 57.0877 61.113 57.5401 61.4049C57.9924 61.6969 58.5525 61.8959 59.2203 62.0021ZM60.3257 55.0479C60.8503 55.1313 61.3321 55.1003 61.7708 54.9549C62.2144 54.8102 62.583 54.5681 62.8766 54.2284C63.1702 53.8887 63.3595 53.4665 63.4447 52.9617C63.5188 52.4649 63.4705 52.0146 63.3 51.611C63.1301 51.2026 62.8585 50.866 62.4849 50.6012C62.1121 50.3317 61.6562 50.1541 61.1172 50.0684C60.5687 49.9812 60.073 50.0075 59.6302 50.1474C59.1882 50.2826 58.8255 50.5183 58.5422 50.8547C58.2597 51.1864 58.0813 51.6006 58.0073 52.0974C57.9221 52.6022 57.9641 53.0612 58.1331 53.4744C58.307 53.8884 58.5823 54.2329 58.9591 54.5079C59.3359 54.783 59.7915 54.963 60.3257 55.0479Z" fill="black"/>
<path d="M76.6833 64.3322L81.2046 50.3357L81.1867 50.2212L73.6291 51.4068L73.3821 49.8323L82.7718 48.3593L83.0323 50.0197L78.5441 64.0403L76.6833 64.3322Z" fill="black"/>
<path d="M89.3291 62.1169L88.88 60.8927L91.6313 54.1733C91.9546 53.3859 92.211 52.7106 92.4005 52.1472C92.5883 51.5793 92.6953 51.0719 92.7217 50.625C92.751 50.1719 92.6874 49.7322 92.5311 49.306C92.3514 48.8163 92.078 48.4356 91.7109 48.1639C91.3482 47.8905 90.9294 47.7304 90.4543 47.6835C89.9793 47.6365 89.4901 47.7054 88.9868 47.89C88.4518 48.0863 88.0255 48.3687 87.708 48.7372C87.3934 49.0996 87.1996 49.5179 87.1267 49.9922C87.0583 50.4648 87.1214 50.9664 87.316 51.4969L85.7109 52.0857C85.4116 51.2696 85.3369 50.4841 85.487 49.7295C85.6372 48.9748 85.9732 48.3062 86.4952 47.7238C87.0217 47.1397 87.6907 46.6987 88.5023 46.401C89.3184 46.1016 90.1048 46.0086 90.8615 46.122C91.6181 46.2354 92.2828 46.5188 92.8556 46.9723C93.4284 47.4258 93.8461 48.0108 94.1089 48.7272C94.2969 49.2395 94.3877 49.7746 94.3815 50.3325C94.3781 50.8842 94.2595 51.5424 94.0256 52.3073C93.7946 53.0659 93.4373 54.0201 92.9537 55.1697L91.0527 59.6636L91.0926 59.7724L97.5673 57.3972L98.1162 58.8934L89.3291 62.1169Z" fill="black"/>
<path d="M100.332 54.729L99.5451 53.4781L99.5704 41.2746L100.478 40.7036L101.697 42.6413L101.084 43.027L101.065 52.248L101.127 52.3461L108.558 47.6707L109.407 49.0197L100.332 54.729ZM107.863 53.5856L106.004 50.6301L105.637 50.0475L99.9629 41.0277L101.41 40.1173L109.31 52.6752L107.863 53.5856Z" fill="black"/>
<path d="M123.42 40.2335C122.881 40.8902 122.264 41.3744 121.571 41.686C120.877 41.9976 120.173 42.125 119.457 42.0681C118.741 42.0113 118.08 41.7587 117.473 41.3103L118.577 39.9669C119.138 40.3408 119.761 40.4582 120.444 40.3193C121.126 40.1735 121.708 39.8077 122.189 39.2218C122.575 38.7516 122.809 38.2432 122.889 37.6966C122.972 37.1463 122.907 36.6087 122.695 36.084C122.481 35.5525 122.13 35.0859 121.641 34.6843C121.141 34.2735 120.605 34.0172 120.032 33.9155C119.459 33.807 118.902 33.8495 118.362 34.0431C117.821 34.2368 117.349 34.5765 116.943 35.0623C116.651 35.41 116.41 35.8146 116.218 36.276C116.023 36.7343 115.913 37.1534 115.888 37.5333L114.665 38.7032L109.592 33.3737L114.485 27.4178L115.717 28.4295L111.78 33.2211L114.83 36.4016L114.886 36.3345C114.892 35.9461 114.979 35.5241 115.147 35.0684C115.316 34.6127 115.558 34.1927 115.873 33.8083C116.45 33.1067 117.131 32.6196 117.918 32.347C118.703 32.0675 119.514 32.0086 120.35 32.1704C121.189 32.3283 121.98 32.7124 122.723 33.3224C123.454 33.9233 123.972 34.624 124.277 35.4245C124.581 36.2182 124.665 37.037 124.528 37.8808C124.388 38.7216 124.018 39.5058 123.42 40.2335Z" fill="black"/>
<path d="M131.394 28.5827C131.102 29.117 130.717 29.6018 130.237 30.0373C129.757 30.4728 129.168 30.7905 128.468 30.9905C127.764 31.1882 126.942 31.2119 126.001 31.0614C125.056 30.9087 123.976 30.5135 122.761 29.8758C121.598 29.2652 120.625 28.615 119.842 27.9255C119.054 27.2336 118.461 26.5187 118.063 25.7806C117.661 25.0403 117.453 24.293 117.44 23.5389C117.429 22.7804 117.618 22.0313 118.007 21.2915C118.393 20.5561 118.884 19.9793 119.48 19.5613C120.074 19.1367 120.727 18.8796 121.439 18.7901C122.152 18.7006 122.876 18.7808 123.612 19.0309L122.79 20.5959C122.124 20.4315 121.486 20.4566 120.877 20.6713C120.268 20.8861 119.781 21.3398 119.418 22.0325C118.883 23.0501 118.905 24.0843 119.482 25.1348C120.062 26.1811 121.15 27.1262 122.747 27.9702L122.801 27.8676C122.564 27.4373 122.403 26.9902 122.319 26.5262C122.234 26.0557 122.226 25.5825 122.296 25.1065C122.366 24.6304 122.518 24.1679 122.754 23.719C123.149 22.9664 123.699 22.3768 124.403 21.95C125.103 21.5211 125.881 21.2914 126.737 21.2608C127.589 21.2281 128.438 21.434 129.284 21.8785C130.097 22.3051 130.745 22.8775 131.23 23.5957C131.711 24.3117 131.977 25.1033 132.029 25.9706C132.079 26.8313 131.867 27.7021 131.394 28.5827ZM129.983 27.8418C130.265 27.303 130.384 26.7491 130.34 26.18C130.297 25.6067 130.114 25.0771 129.791 24.5911C129.47 24.1008 129.032 23.7097 128.476 23.4179C127.933 23.1327 127.375 22.9953 126.803 23.0055C126.228 23.0092 125.697 23.1531 125.209 23.4372C124.724 23.717 124.34 24.1263 124.057 24.6651C123.844 25.0713 123.727 25.4924 123.705 25.9283C123.679 26.362 123.736 26.7844 123.874 27.1955C124.015 27.6022 124.226 27.9747 124.507 28.313C124.783 28.649 125.118 28.9203 125.511 29.1269C126.033 29.4008 126.584 29.5349 127.166 29.5291C127.749 29.5191 128.292 29.3733 128.794 29.0916C129.299 28.8057 129.695 28.3891 129.983 27.8418Z" fill="black"/>
<path d="M135.452 19.524L124.683 9.5054L124.572 9.47323L122.449 16.8226L120.917 16.3803L123.556 7.24918L125.17 7.71569L135.975 17.7145L135.452 19.524Z" fill="black"/>
</svg>
